<svg xmlns="http://www.w3.org/2000/svg" enable-background="new 0 0 50 50" viewBox="0 0 50 50" id="bakery-items">
  <path d="M22.15469 30.333H.99759l2.2047 13.9562h4.7289l-1.6832-9.0338c-.1113-.5949.28141-1.1668.8763-1.2775.597-.1151 1.1673.2819 1.2775.8763l1.758 9.435h1.499v-9.2344c0-.6051.49061-1.0957 1.0957-1.0957.6051 0 1.0956.4906 1.0956 1.0957v9.2344h1.2321c1.8209-7.7866 1.1259-10.6683 3.0355-10.3113.5949.1107.9876.6826.8763 1.2775l-1.6832 9.0338h4.9878l1.0224-6.4637C22.29329 35.5206 21.8793 32.7372 22.15469 30.333zM47.14241 30.1448c-3.8.13-7.02-2.88-7.17-6.66-1.69-.54-2.9-2.1-2.93-3.94-.13-.01-.26-.01-.4-.01-5.23 0-9.91 3.3-11.66 8.21l-.01.01c-2.86461 8.2258 3.22239 16.53 11.67 16.53 6.56 0 11.95-5.13 12.36-11.6C47.9724 32.2648 47.23241 31.2948 47.14241 30.1448zM31.8024 37.7948c-.88 0-1.61-.73-1.61-1.61 0-.89.73-1.61 1.61-1.61.9 0 1.63.72 1.63 1.61C33.4324 37.0648 32.7024 37.7948 31.8024 37.7948zM30.70241 31.4148c-1.53 0-2.76-1.24-2.76-2.76 0-1.52 1.23-2.75 2.76-2.75 1.51 0 2.75 1.23 2.75 2.75C33.4524 30.1748 32.21241 31.4148 30.70241 31.4148zM36.07241 24.6448c-.79 0-1.44-.65-1.44-1.45 0-.79.65-1.43 1.44-1.43.79 0 1.44.64 1.44 1.43C37.51241 23.9948 36.8624 24.6448 36.07241 24.6448zM38.2224 32.3748c-.77 0-1.4-.62-1.4-1.4 0-.75.63-1.38 1.4-1.38s1.4.63 1.4 1.38C39.62241 31.7548 38.9924 32.3748 38.2224 32.3748zM41.23241 37.1048c-.79 0-1.43-.65-1.43-1.44 0-.8.64-1.45 1.43-1.45.79 0 1.43.65 1.43 1.45C42.66241 36.4548 42.0224 37.1048 41.23241 37.1048zM22.77049 27.4312c-1.2315-2.6118-5.2787-4.4781-9.8664-4.5179h-.28169c-5.06221.04-9.39091 2.3387-10.14391 5.2284H22.5624C22.56359 28.1372 22.73809 27.5321 22.77049 27.4312zM8.76299 20.722c.3375 0 8.4739 0 7.9835 0 1.131 0 2.0506-.9197 2.0506-2.0506 0-1.131-.9196-2.0506-2.0506-2.0506-12.4279.0064-.12109.0004-7.9835 0-1.131 0-2.05059.9196-2.05059 2.0506C6.71241 19.8023 7.63199 20.722 8.76299 20.722zM10.00769 14.4295h4.9024c3.8537-.0614 2.431-6.5383-.739-8.7187.0514.0888.1011.1782.1488.268.482.9122.4483 1.9902-.0899 2.8841-.5537.9191-1.52259 1.468-2.591 1.468h-1.5942c-.9683 0-1.7558.7875-1.7558 1.7559v.5906C8.28899 13.633 9.05689 14.4092 10.00769 14.4295z"></path>
</svg>
